%TF.GenerationSoftware,KiCad,Pcbnew,10.0.4*%
%TF.CreationDate,2026-07-19T16:52:08+02:00*%
%TF.ProjectId,controllboard,636f6e74-726f-46c6-9c62-6f6172642e6b,rev?*%
%TF.SameCoordinates,Original*%
%TF.FileFunction,Copper,L2,Bot*%
%TF.FilePolarity,Positive*%
%FSLAX46Y46*%
G04 Gerber Fmt 4.6, Leading zero omitted, Abs format (unit mm)*
G04 Created by KiCad (PCBNEW 10.0.4) date 2026-07-19 16:52:08*
%MOMM*%
%LPD*%
G01*
G04 APERTURE LIST*
%TA.AperFunction,ComponentPad*%
%ADD10C,7.500000*%
%TD*%
%TA.AperFunction,ComponentPad*%
%ADD11R,1.700000X1.700000*%
%TD*%
%TA.AperFunction,ComponentPad*%
%ADD12C,1.700000*%
%TD*%
%TA.AperFunction,ComponentPad*%
%ADD13R,1.524000X1.524000*%
%TD*%
%TA.AperFunction,ComponentPad*%
%ADD14C,1.524000*%
%TD*%
%TA.AperFunction,ComponentPad*%
%ADD15R,1.530000X1.530000*%
%TD*%
%TA.AperFunction,ComponentPad*%
%ADD16C,1.530000*%
%TD*%
%TA.AperFunction,ViaPad*%
%ADD17C,0.600000*%
%TD*%
%TA.AperFunction,Conductor*%
%ADD18C,0.200000*%
%TD*%
G04 APERTURE END LIST*
D10*
%TO.P,H4,1*%
%TO.N,N/C*%
X24812330Y-86483257D03*
%TD*%
D11*
%TO.P,J1,1,Pin_1_1*%
%TO.N,3V3*%
X65980000Y-79430000D03*
D12*
%TO.P,J1,2,Pin_2_2*%
%TO.N,Net-(J1-Pin_2)*%
X68520000Y-79430000D03*
%TO.P,J1,3,Pin_3_3*%
%TO.N,Net-(J1-Pin_3)*%
X71060000Y-79430000D03*
%TD*%
D10*
%TO.P,H2,1*%
%TO.N,N/C*%
X112812330Y-28483257D03*
%TD*%
D11*
%TO.P,J2,1,Pin_1_1*%
%TO.N,3V3*%
X85980000Y-79430000D03*
D12*
%TO.P,J2,2,Pin_2_2*%
%TO.N,Net-(J2-Pin_2)*%
X88520000Y-79430000D03*
%TO.P,J2,3,Pin_3_3*%
%TO.N,Net-(J2-Pin_3)*%
X91060000Y-79430000D03*
%TD*%
D11*
%TO.P,J5,1,Pin_1_1*%
%TO.N,Net-(J5-Pin_1)*%
X65980000Y-69430000D03*
D12*
%TO.P,J5,2,Pin_2_2*%
%TO.N,Net-(J5-Pin_2)*%
X68520000Y-69430000D03*
%TO.P,J5,3,Pin_3_3*%
%TO.N,Net-(J5-Pin_3)*%
X71060000Y-69430000D03*
%TO.P,J5,4,Pin_4_4*%
%TO.N,Net-(J5-Pin_4)*%
X73600000Y-69430000D03*
%TD*%
D11*
%TO.P,J4,1,Pin_1_1*%
%TO.N,Net-(J4-Pin_1)*%
X106237500Y-79430000D03*
D12*
%TO.P,J4,2,Pin_2_2*%
%TO.N,GND*%
X108777500Y-79430000D03*
%TO.P,J4,3,Pin_3_3*%
%TO.N,Net-(J4-Pin_3)*%
X111317500Y-79430000D03*
%TD*%
D10*
%TO.P,H3,1*%
%TO.N,N/C*%
X112812330Y-86483257D03*
%TD*%
D13*
%TO.P,U4,JP1_1,DIR_JP1_1*%
%TO.N,Net-(U1-GPIO47)*%
X116130000Y-47890000D03*
D14*
%TO.P,U4,JP1_2,STEP_JP1_2*%
%TO.N,Net-(U1-GPIO48)*%
X116130000Y-50430000D03*
%TO.P,U4,JP1_3*%
%TO.N,N/C*%
X116130000Y-52970000D03*
%TO.P,U4,JP1_4,PDN/UART1_JP1_4*%
%TO.N,unconnected-(U4-PDN{slash}UART1-PadJP1_4)*%
X116130000Y-55510000D03*
%TO.P,U4,JP1_5,PDN/UART2_JP1_5*%
%TO.N,unconnected-(U4-PDN{slash}UART2-PadJP1_5)*%
X116130000Y-58050000D03*
%TO.P,U4,JP1_6,MS2_JP1_6*%
%TO.N,Net-(U1-GPIO6)*%
X116130000Y-60590000D03*
%TO.P,U4,JP1_7,MS1_JP1_7*%
%TO.N,Net-(U1-GPIO5)*%
X116130000Y-63130000D03*
%TO.P,U4,JP1_8,EN_JP1_8*%
%TO.N,GND*%
X116130000Y-65670000D03*
D13*
%TO.P,U4,JP2_1,VM_JP2_1*%
%TO.N,Net-(J3-Pin_1)*%
X103430000Y-65670000D03*
D14*
%TO.P,U4,JP2_2,GND_JP2_2*%
%TO.N,GND*%
X103430000Y-63130000D03*
%TO.P,U4,JP2_3,OA2_JP2_3*%
%TO.N,Net-(J7-Pin_2)*%
X103430000Y-60590000D03*
%TO.P,U4,JP2_4,OA1_JP2_4*%
%TO.N,Net-(J7-Pin_1)*%
X103430000Y-58050000D03*
%TO.P,U4,JP2_5,OB1_JP2_5*%
%TO.N,Net-(J7-Pin_3)*%
X103430000Y-55510000D03*
%TO.P,U4,JP2_6,OB2_JP2_6*%
%TO.N,Net-(J7-Pin_4)*%
X103430000Y-52970000D03*
%TO.P,U4,JP2_7,VIO_JP2_7*%
%TO.N,3V3*%
X103430000Y-50430000D03*
%TO.P,U4,JP2_8,GND_JP2_8*%
%TO.N,GND*%
X103430000Y-47890000D03*
%TO.P,U4,JP3_1,DIAG_JP3_1*%
%TO.N,unconnected-(U4-DIAG-PadJP3_1)*%
X111050000Y-65670000D03*
%TO.P,U4,JP3_2,INDEX_JP3_2*%
%TO.N,unconnected-(U4-INDEX-PadJP3_2)*%
X113590000Y-65670000D03*
%TO.P,U4,VREF,VREF_VREF*%
%TO.N,unconnected-(U4-PadVREF)*%
X112320000Y-64019000D03*
%TD*%
D15*
%TO.P,U1,J1_1,3V3_J1_1*%
%TO.N,3V3*%
X32280000Y-30390000D03*
D16*
%TO.P,U1,J1_2,3V3_J1_2*%
X32280000Y-32930000D03*
%TO.P,U1,J1_3,RST_J1_3*%
%TO.N,unconnected-(U1-RST-PadJ1_3)*%
X32280000Y-35470000D03*
%TO.P,U1,J1_4,GPIO4_J1_4*%
%TO.N,Net-(J4-Pin_3)*%
X32280000Y-38010000D03*
%TO.P,U1,J1_5,GPIO5_J1_5*%
%TO.N,Net-(U1-GPIO5)*%
X32280000Y-40550000D03*
%TO.P,U1,J1_6,GPIO6_J1_6*%
%TO.N,Net-(U1-GPIO6)*%
X32280000Y-43090000D03*
%TO.P,U1,J1_7,GPIO7_J1_7*%
%TO.N,unconnected-(U1-GPIO7-PadJ1_7)*%
X32280000Y-45630000D03*
%TO.P,U1,J1_8,GPIO15_J1_8*%
%TO.N,unconnected-(U1-GPIO15-PadJ1_8)*%
X32280000Y-48170000D03*
%TO.P,U1,J1_9,GPIO16_J1_9*%
%TO.N,Net-(J1-Pin_2)*%
X32280000Y-50710000D03*
%TO.P,U1,J1_10,GPIO17_J1_10*%
%TO.N,Net-(J1-Pin_3)*%
X32280000Y-53250000D03*
%TO.P,U1,J1_11,GPIO18_J1_11*%
%TO.N,Net-(J2-Pin_2)*%
X32280000Y-55790000D03*
%TO.P,U1,J1_12,GPIO8_J1_12*%
%TO.N,unconnected-(U1-GPIO8-PadJ1_12)*%
X32280000Y-58330000D03*
%TO.P,U1,J1_13,GPIO3_J1_13*%
%TO.N,unconnected-(U1-GPIO3-PadJ1_13)*%
X32280000Y-60870000D03*
%TO.P,U1,J1_14,GPIO46_J1_14*%
%TO.N,unconnected-(U1-GPIO46-PadJ1_14)*%
X32280000Y-63410000D03*
%TO.P,U1,J1_15,GPIO9_J1_15*%
%TO.N,unconnected-(U1-GPIO9-PadJ1_15)*%
X32280000Y-65950000D03*
%TO.P,U1,J1_16,GPIO10_J1_16*%
%TO.N,unconnected-(U1-GPIO10-PadJ1_16)*%
X32280000Y-68490000D03*
%TO.P,U1,J1_17,GPIO11_J1_17*%
%TO.N,unconnected-(U1-GPIO11-PadJ1_17)*%
X32280000Y-71030000D03*
%TO.P,U1,J1_18,GPIO12_J1_18*%
%TO.N,unconnected-(U1-GPIO12-PadJ1_18)*%
X32280000Y-73570000D03*
%TO.P,U1,J1_19,GPIO13_J1_19*%
%TO.N,unconnected-(U1-GPIO13-PadJ1_19)*%
X32280000Y-76110000D03*
%TO.P,U1,J1_20,GPIO14_J1_20*%
%TO.N,unconnected-(U1-GPIO14-PadJ1_20)*%
X32280000Y-78650000D03*
%TO.P,U1,J1_21,5V0_J1_21*%
%TO.N,Net-(J4-Pin_1)*%
X32280000Y-81190000D03*
%TO.P,U1,J1_22,GND_J1_22*%
%TO.N,GND*%
X32280000Y-83730000D03*
%TO.P,U1,J3_1,GND_J3_1*%
X55140000Y-30390000D03*
%TO.P,U1,J3_2,U0TXD/GPIO43_J3_2*%
%TO.N,unconnected-(U1-U0TXD{slash}GPIO43-PadJ3_2)*%
X55140000Y-32930000D03*
%TO.P,U1,J3_3,U0RXD/GPIO44_J3_3*%
%TO.N,unconnected-(U1-U0RXD{slash}GPIO44-PadJ3_3)*%
X55140000Y-35470000D03*
%TO.P,U1,J3_4,GPIO1_J3_4*%
%TO.N,unconnected-(U1-GPIO1-PadJ3_4)*%
X55140000Y-38010000D03*
%TO.P,U1,J3_5,GPIO2_J3_5*%
%TO.N,unconnected-(U1-GPIO2-PadJ3_5)*%
X55140000Y-40550000D03*
%TO.P,U1,J3_6,MTMS/GPIO42_J3_6*%
%TO.N,unconnected-(U1-MTMS{slash}GPIO42-PadJ3_6)*%
X55140000Y-43090000D03*
%TO.P,U1,J3_7,MTDI/GPIO41_J3_7*%
%TO.N,Net-(U1-MTDI{slash}GPIO41)*%
X55140000Y-45630000D03*
%TO.P,U1,J3_8,MTDO/GPIO40_J3_8*%
%TO.N,Net-(U1-MTDO{slash}GPIO40)*%
X55140000Y-48170000D03*
%TO.P,U1,J3_9,MTCK/GPIO39_J3_9*%
%TO.N,Net-(U1-MTCK{slash}GPIO39)*%
X55140000Y-50710000D03*
%TO.P,U1,J3_10,GPIO38_J3_10*%
%TO.N,Net-(U1-GPIO38)*%
X55140000Y-53250000D03*
%TO.P,U1,J3_11,GPIO37_J3_11*%
%TO.N,unconnected-(U1-GPIO37-PadJ3_11)*%
X55140000Y-55790000D03*
%TO.P,U1,J3_12,GPIO36_J3_12*%
%TO.N,unconnected-(U1-GPIO36-PadJ3_12)*%
X55140000Y-58330000D03*
%TO.P,U1,J3_13,GPIO35_J3_13*%
%TO.N,unconnected-(U1-GPIO35-PadJ3_13)*%
X55140000Y-60870000D03*
%TO.P,U1,J3_14,GPIO0_J3_14*%
%TO.N,unconnected-(U1-GPIO0-PadJ3_14)*%
X55140000Y-63410000D03*
%TO.P,U1,J3_15,GPIO45_J3_15*%
%TO.N,unconnected-(U1-GPIO45-PadJ3_15)*%
X55140000Y-65950000D03*
%TO.P,U1,J3_16,GPIO48_J3_16*%
%TO.N,Net-(U1-GPIO48)*%
X55140000Y-68490000D03*
%TO.P,U1,J3_17,GPIO47_J3_17*%
%TO.N,Net-(U1-GPIO47)*%
X55140000Y-71030000D03*
%TO.P,U1,J3_18,GPIO21_J3_18*%
%TO.N,Net-(J2-Pin_3)*%
X55140000Y-73570000D03*
%TO.P,U1,J3_19,USB_D+/GPIO20_J3_19*%
%TO.N,unconnected-(U1-USB_D+{slash}GPIO20-PadJ3_19)*%
X55140000Y-76110000D03*
%TO.P,U1,J3_20,USB_D-/GPIO19_J3_20*%
%TO.N,unconnected-(U1-USB_D-{slash}GPIO19-PadJ3_20)*%
X55140000Y-78650000D03*
%TO.P,U1,J3_21,GND_J3_21*%
%TO.N,GND*%
X55140000Y-81190000D03*
%TO.P,U1,J3_22,GND_J3_22*%
X55140000Y-83730000D03*
%TD*%
D10*
%TO.P,H1,1*%
%TO.N,N/C*%
X24812330Y-28483257D03*
%TD*%
D11*
%TO.P,J7,1,Pin_1_1*%
%TO.N,Net-(J7-Pin_1)*%
X106237500Y-69430000D03*
D12*
%TO.P,J7,2,Pin_2_2*%
%TO.N,Net-(J7-Pin_2)*%
X108777500Y-69430000D03*
%TO.P,J7,3,Pin_3_3*%
%TO.N,Net-(J7-Pin_3)*%
X111317500Y-69430000D03*
%TO.P,J7,4,Pin_4_4*%
%TO.N,Net-(J7-Pin_4)*%
X113857500Y-69430000D03*
%TD*%
D13*
%TO.P,U2,JP1_1,DIR_JP1_1*%
%TO.N,Net-(U1-GPIO38)*%
X76130000Y-47840000D03*
D14*
%TO.P,U2,JP1_2,STEP_JP1_2*%
%TO.N,Net-(U1-MTCK{slash}GPIO39)*%
X76130000Y-50380000D03*
%TO.P,U2,JP1_3*%
%TO.N,N/C*%
X76130000Y-52920000D03*
%TO.P,U2,JP1_4,PDN/UART1_JP1_4*%
%TO.N,unconnected-(U2-PDN{slash}UART1-PadJP1_4)*%
X76130000Y-55460000D03*
%TO.P,U2,JP1_5,PDN/UART2_JP1_5*%
%TO.N,unconnected-(U2-PDN{slash}UART2-PadJP1_5)*%
X76130000Y-58000000D03*
%TO.P,U2,JP1_6,MS2_JP1_6*%
%TO.N,Net-(U1-GPIO6)*%
X76130000Y-60540000D03*
%TO.P,U2,JP1_7,MS1_JP1_7*%
%TO.N,Net-(U1-GPIO5)*%
X76130000Y-63080000D03*
%TO.P,U2,JP1_8,EN_JP1_8*%
%TO.N,GND*%
X76130000Y-65620000D03*
D13*
%TO.P,U2,JP2_1,VM_JP2_1*%
%TO.N,Net-(J3-Pin_1)*%
X63430000Y-65620000D03*
D14*
%TO.P,U2,JP2_2,GND_JP2_2*%
%TO.N,GND*%
X63430000Y-63080000D03*
%TO.P,U2,JP2_3,OA2_JP2_3*%
%TO.N,Net-(J5-Pin_2)*%
X63430000Y-60540000D03*
%TO.P,U2,JP2_4,OA1_JP2_4*%
%TO.N,Net-(J5-Pin_1)*%
X63430000Y-58000000D03*
%TO.P,U2,JP2_5,OB1_JP2_5*%
%TO.N,Net-(J5-Pin_3)*%
X63430000Y-55460000D03*
%TO.P,U2,JP2_6,OB2_JP2_6*%
%TO.N,Net-(J5-Pin_4)*%
X63430000Y-52920000D03*
%TO.P,U2,JP2_7,VIO_JP2_7*%
%TO.N,3V3*%
X63430000Y-50380000D03*
%TO.P,U2,JP2_8,GND_JP2_8*%
%TO.N,GND*%
X63430000Y-47840000D03*
%TO.P,U2,JP3_1,DIAG_JP3_1*%
%TO.N,unconnected-(U2-DIAG-PadJP3_1)*%
X71050000Y-65620000D03*
%TO.P,U2,JP3_2,INDEX_JP3_2*%
%TO.N,unconnected-(U2-INDEX-PadJP3_2)*%
X73590000Y-65620000D03*
%TO.P,U2,VREF,VREF_VREF*%
%TO.N,unconnected-(U2-PadVREF)*%
X72320000Y-63969000D03*
%TD*%
D13*
%TO.P,U3,JP1_1,DIR_JP1_1*%
%TO.N,Net-(U1-MTDO{slash}GPIO40)*%
X96130000Y-47840000D03*
D14*
%TO.P,U3,JP1_2,STEP_JP1_2*%
%TO.N,Net-(U1-MTDI{slash}GPIO41)*%
X96130000Y-50380000D03*
%TO.P,U3,JP1_3*%
%TO.N,N/C*%
X96130000Y-52920000D03*
%TO.P,U3,JP1_4,PDN/UART1_JP1_4*%
%TO.N,unconnected-(U3-PDN{slash}UART1-PadJP1_4)*%
X96130000Y-55460000D03*
%TO.P,U3,JP1_5,PDN/UART2_JP1_5*%
%TO.N,unconnected-(U3-PDN{slash}UART2-PadJP1_5)*%
X96130000Y-58000000D03*
%TO.P,U3,JP1_6,MS2_JP1_6*%
%TO.N,Net-(U1-GPIO6)*%
X96130000Y-60540000D03*
%TO.P,U3,JP1_7,MS1_JP1_7*%
%TO.N,Net-(U1-GPIO5)*%
X96130000Y-63080000D03*
%TO.P,U3,JP1_8,EN_JP1_8*%
%TO.N,GND*%
X96130000Y-65620000D03*
D13*
%TO.P,U3,JP2_1,VM_JP2_1*%
%TO.N,Net-(J3-Pin_1)*%
X83430000Y-65620000D03*
D14*
%TO.P,U3,JP2_2,GND_JP2_2*%
%TO.N,GND*%
X83430000Y-63080000D03*
%TO.P,U3,JP2_3,OA2_JP2_3*%
%TO.N,Net-(J6-Pin_2)*%
X83430000Y-60540000D03*
%TO.P,U3,JP2_4,OA1_JP2_4*%
%TO.N,Net-(J6-Pin_1)*%
X83430000Y-58000000D03*
%TO.P,U3,JP2_5,OB1_JP2_5*%
%TO.N,Net-(J6-Pin_3)*%
X83430000Y-55460000D03*
%TO.P,U3,JP2_6,OB2_JP2_6*%
%TO.N,Net-(J6-Pin_4)*%
X83430000Y-52920000D03*
%TO.P,U3,JP2_7,VIO_JP2_7*%
%TO.N,3V3*%
X83430000Y-50380000D03*
%TO.P,U3,JP2_8,GND_JP2_8*%
%TO.N,GND*%
X83430000Y-47840000D03*
%TO.P,U3,JP3_1,DIAG_JP3_1*%
%TO.N,unconnected-(U3-DIAG-PadJP3_1)*%
X91050000Y-65620000D03*
%TO.P,U3,JP3_2,INDEX_JP3_2*%
%TO.N,unconnected-(U3-INDEX-PadJP3_2)*%
X93590000Y-65620000D03*
%TO.P,U3,VREF,VREF_VREF*%
%TO.N,unconnected-(U3-PadVREF)*%
X92320000Y-63969000D03*
%TD*%
D11*
%TO.P,J3,1,Pin_1_1*%
%TO.N,Net-(J3-Pin_1)*%
X85980000Y-89430000D03*
D12*
%TO.P,J3,2,Pin_2_2*%
%TO.N,GND*%
X88520000Y-89430000D03*
%TD*%
D11*
%TO.P,J6,1,Pin_1_1*%
%TO.N,Net-(J6-Pin_1)*%
X85980000Y-69430000D03*
D12*
%TO.P,J6,2,Pin_2_2*%
%TO.N,Net-(J6-Pin_2)*%
X88520000Y-69430000D03*
%TO.P,J6,3,Pin_3_3*%
%TO.N,Net-(J6-Pin_3)*%
X91060000Y-69430000D03*
%TO.P,J6,4,Pin_4_4*%
%TO.N,Net-(J6-Pin_4)*%
X93600000Y-69430000D03*
%TD*%
D17*
%TO.N,3V3*%
X78080000Y-79430000D03*
X67130000Y-56930000D03*
X84580000Y-79430000D03*
X67180000Y-63880000D03*
%TO.N,Net-(J2-Pin_2)*%
X86430000Y-85830000D03*
%TO.N,Net-(J2-Pin_3)*%
X77980000Y-75130000D03*
X62180000Y-75230000D03*
X70080000Y-74980000D03*
%TO.N,Net-(J4-Pin_3)*%
X46130000Y-39130000D03*
%TO.N,Net-(J1-Pin_2)*%
X61130000Y-77430000D03*
%TO.N,Net-(J5-Pin_2)*%
X68530000Y-60730000D03*
%TO.N,Net-(J6-Pin_2)*%
X88630000Y-60630000D03*
%TO.N,Net-(J7-Pin_2)*%
X108830000Y-60580000D03*
%TO.N,Net-(U1-GPIO47)*%
X61780000Y-72930000D03*
X79480000Y-58080000D03*
X77780000Y-62830000D03*
X68830000Y-72930000D03*
%TO.N,Net-(U1-MTDO{slash}GPIO40)*%
X61180000Y-49530000D03*
%TO.N,Net-(U1-GPIO48)*%
X62080000Y-73930000D03*
X70030000Y-73730000D03*
X78430000Y-73980000D03*
X98025735Y-62875735D03*
X85330000Y-73880000D03*
%TO.N,Net-(U1-GPIO6)*%
X59980000Y-58730000D03*
%TD*%
%TO.N,GND*%
D18*
X88520000Y-85070000D02*
X87180000Y-83730000D01*
X103430000Y-63130000D02*
X98620000Y-63130000D01*
X98620000Y-63130000D02*
X96130000Y-65620000D01*
X103430000Y-47890000D02*
X100740000Y-47890000D01*
X75930000Y-83730000D02*
X55140000Y-83730000D01*
X78670000Y-63080000D02*
X76130000Y-65620000D01*
X87180000Y-83730000D02*
X75930000Y-83730000D01*
X88520000Y-89430000D02*
X88520000Y-85070000D01*
X60430000Y-66080000D02*
X60430000Y-75900000D01*
X63430000Y-38680000D02*
X55140000Y-30390000D01*
X60430000Y-75900000D02*
X55140000Y-81190000D01*
X108777500Y-79430000D02*
X103978750Y-84228750D01*
X83430000Y-63080000D02*
X78670000Y-63080000D01*
X96130000Y-65620000D02*
X96130000Y-76380000D01*
X63430000Y-47840000D02*
X63430000Y-38680000D01*
X103978750Y-84228750D02*
X98777500Y-89430000D01*
X63430000Y-63080000D02*
X60430000Y-66080000D01*
X83430000Y-47840000D02*
X65980000Y-30390000D01*
X116130000Y-65670000D02*
X116130000Y-72077500D01*
X100740000Y-47890000D02*
X83240000Y-30390000D01*
X116130000Y-72077500D02*
X108777500Y-79430000D01*
X76130000Y-83530000D02*
X75930000Y-83730000D01*
X65980000Y-30390000D02*
X55140000Y-30390000D01*
X96130000Y-76380000D02*
X103978750Y-84228750D01*
X98777500Y-89430000D02*
X88520000Y-89430000D01*
X83240000Y-30390000D02*
X65980000Y-30390000D01*
X76130000Y-65620000D02*
X76130000Y-83530000D01*
%TO.N,3V3*%
X83430000Y-50380000D02*
X82368000Y-51442000D01*
X84580000Y-79430000D02*
X78080000Y-79430000D01*
X103430000Y-50430000D02*
X102418000Y-51442000D01*
X67180000Y-63880000D02*
X67180000Y-56980000D01*
X102418000Y-51442000D02*
X84492000Y-51442000D01*
X67180000Y-56980000D02*
X67130000Y-56930000D01*
X84492000Y-51442000D02*
X83430000Y-50380000D01*
X64492000Y-51442000D02*
X63430000Y-50380000D01*
X82368000Y-51442000D02*
X64492000Y-51442000D01*
%TO.N,Net-(J2-Pin_2)*%
X33870000Y-57380000D02*
X32280000Y-55790000D01*
X36130000Y-57380000D02*
X33870000Y-57380000D01*
X86430000Y-85830000D02*
X55733862Y-85830000D01*
X36130000Y-66226138D02*
X36130000Y-57380000D01*
X55733862Y-85830000D02*
X36130000Y-66226138D01*
%TO.N,Net-(J2-Pin_3)*%
X70080000Y-74980000D02*
X62430000Y-74980000D01*
X62430000Y-74980000D02*
X62180000Y-75230000D01*
X86760000Y-75130000D02*
X77980000Y-75130000D01*
X91060000Y-79430000D02*
X86760000Y-75130000D01*
%TO.N,Net-(J4-Pin_3)*%
X33400000Y-39130000D02*
X32280000Y-38010000D01*
X46130000Y-39130000D02*
X33400000Y-39130000D01*
%TO.N,Net-(J1-Pin_2)*%
X68520000Y-79430000D02*
X66520000Y-77430000D01*
X66520000Y-77430000D02*
X61130000Y-77430000D01*
%TO.N,Net-(J1-Pin_3)*%
X37580000Y-65136138D02*
X37580000Y-54730000D01*
X68235000Y-82255000D02*
X54698862Y-82255000D01*
X54698862Y-82255000D02*
X37580000Y-65136138D01*
X71060000Y-79430000D02*
X68235000Y-82255000D01*
X37580000Y-54730000D02*
X33760000Y-54730000D01*
X33760000Y-54730000D02*
X32280000Y-53250000D01*
%TO.N,Net-(J5-Pin_1)*%
X65760000Y-58000000D02*
X63430000Y-58000000D01*
X65980000Y-69430000D02*
X65980000Y-57980000D01*
X65780000Y-57980000D02*
X65760000Y-58000000D01*
X65980000Y-57980000D02*
X65780000Y-57980000D01*
%TO.N,Net-(J5-Pin_2)*%
X68520000Y-69430000D02*
X68520000Y-60740000D01*
X68520000Y-60740000D02*
X68530000Y-60730000D01*
%TO.N,Net-(J5-Pin_3)*%
X71060000Y-69430000D02*
X69480000Y-67850000D01*
X69230000Y-55480000D02*
X68380000Y-55480000D01*
X69480000Y-67850000D02*
X69480000Y-55730000D01*
X68360000Y-55460000D02*
X63430000Y-55460000D01*
X69480000Y-55730000D02*
X69230000Y-55480000D01*
X68380000Y-55480000D02*
X68360000Y-55460000D01*
%TO.N,Net-(J5-Pin_4)*%
X71870000Y-52920000D02*
X63430000Y-52920000D01*
X74652000Y-68378000D02*
X74652000Y-55702000D01*
X74652000Y-55702000D02*
X71870000Y-52920000D01*
X73600000Y-69430000D02*
X74652000Y-68378000D01*
%TO.N,Net-(J6-Pin_3)*%
X89430000Y-55480000D02*
X89410000Y-55460000D01*
X90980000Y-69430000D02*
X89430000Y-67880000D01*
X89410000Y-55460000D02*
X83430000Y-55460000D01*
X89430000Y-67880000D02*
X89430000Y-55480000D01*
X91060000Y-69430000D02*
X90980000Y-69430000D01*
%TO.N,Net-(J6-Pin_2)*%
X88520000Y-69430000D02*
X88520000Y-60740000D01*
X88520000Y-60740000D02*
X88630000Y-60630000D01*
%TO.N,Net-(J6-Pin_1)*%
X85760000Y-58000000D02*
X83430000Y-58000000D01*
X85780000Y-57980000D02*
X85760000Y-58000000D01*
X85980000Y-58180000D02*
X85780000Y-57980000D01*
X85980000Y-69430000D02*
X85980000Y-58180000D01*
%TO.N,Net-(J6-Pin_4)*%
X94652000Y-68378000D02*
X94652000Y-55252000D01*
X94652000Y-55252000D02*
X92320000Y-52920000D01*
X93600000Y-69430000D02*
X94652000Y-68378000D01*
X92320000Y-52920000D02*
X83430000Y-52920000D01*
%TO.N,Net-(J7-Pin_2)*%
X108777500Y-60632500D02*
X108830000Y-60580000D01*
X108777500Y-69430000D02*
X108777500Y-60632500D01*
%TO.N,Net-(J7-Pin_3)*%
X110280000Y-55830000D02*
X109960000Y-55510000D01*
X109930000Y-68042500D02*
X109930000Y-56180000D01*
X111317500Y-69430000D02*
X109930000Y-68042500D01*
X109930000Y-56180000D02*
X110280000Y-55830000D01*
X109960000Y-55510000D02*
X103430000Y-55510000D01*
%TO.N,Net-(J7-Pin_1)*%
X106130000Y-57930000D02*
X106010000Y-58050000D01*
X106010000Y-58050000D02*
X103430000Y-58050000D01*
X106237500Y-69430000D02*
X106237500Y-58037500D01*
X106237500Y-58037500D02*
X106130000Y-57930000D01*
%TO.N,Net-(J7-Pin_4)*%
X114707500Y-68580000D02*
X114707500Y-55357500D01*
X114707500Y-55357500D02*
X112320000Y-52970000D01*
X112320000Y-52970000D02*
X103430000Y-52970000D01*
X113857500Y-69430000D02*
X114707500Y-68580000D01*
%TO.N,Net-(U1-GPIO38)*%
X76130000Y-47840000D02*
X75068000Y-48902000D01*
X75068000Y-48902000D02*
X59488000Y-48902000D01*
X59488000Y-48902000D02*
X55140000Y-53250000D01*
%TO.N,Net-(U1-GPIO47)*%
X79480000Y-58080000D02*
X79480000Y-61130000D01*
X79480000Y-61130000D02*
X77780000Y-62830000D01*
X68830000Y-72930000D02*
X61780000Y-72930000D01*
%TO.N,Net-(U1-MTDO{slash}GPIO40)*%
X61408000Y-49302000D02*
X61180000Y-49530000D01*
X94668000Y-49302000D02*
X61408000Y-49302000D01*
X96130000Y-47840000D02*
X94668000Y-49302000D01*
%TO.N,Net-(U1-GPIO48)*%
X70030000Y-73730000D02*
X62280000Y-73730000D01*
X102990105Y-51908000D02*
X99680000Y-55218105D01*
X62280000Y-73730000D02*
X62080000Y-73930000D01*
X85330000Y-73880000D02*
X78530000Y-73880000D01*
X99680000Y-61221470D02*
X98025735Y-62875735D01*
X114652000Y-51908000D02*
X102990105Y-51908000D01*
X78530000Y-73880000D02*
X78430000Y-73980000D01*
X116130000Y-50430000D02*
X114652000Y-51908000D01*
X99680000Y-55218105D02*
X99680000Y-61221470D01*
%TO.N,Net-(U1-GPIO6)*%
X58105000Y-56855000D02*
X46045000Y-56855000D01*
X59980000Y-58730000D02*
X58105000Y-56855000D01*
X46045000Y-56855000D02*
X32280000Y-43090000D01*
%TD*%
M02*
