G04 #@! TF.GenerationSoftware,KiCad,Pcbnew,10.0.5*
G04 #@! TF.CreationDate,2026-07-31T11:18:45+02:00*
G04 #@! TF.ProjectId,controllboard,636f6e74-726f-46c6-9c62-6f6172642e6b,rev?*
G04 #@! TF.SameCoordinates,Original*
G04 #@! TF.FileFunction,Copper,L1,Top*
G04 #@! TF.FilePolarity,Positive*
%FSLAX46Y46*%
G04 Gerber Fmt 4.6, Leading zero omitted, Abs format (unit mm)*
G04 Created by KiCad (PCBNEW 10.0.5) date 2026-07-31 11:18:45*
%MOMM*%
%LPD*%
G01*
G04 APERTURE LIST*
G04 #@! TA.AperFunction,ComponentPad*
%ADD10C,7.500000*%
G04 #@! TD*
G04 #@! TA.AperFunction,ComponentPad*
%ADD11R,1.700000X1.700000*%
G04 #@! TD*
G04 #@! TA.AperFunction,ComponentPad*
%ADD12C,1.700000*%
G04 #@! TD*
G04 #@! TA.AperFunction,ComponentPad*
%ADD13R,1.524000X1.524000*%
G04 #@! TD*
G04 #@! TA.AperFunction,ComponentPad*
%ADD14C,1.524000*%
G04 #@! TD*
G04 #@! TA.AperFunction,ComponentPad*
%ADD15R,1.530000X1.530000*%
G04 #@! TD*
G04 #@! TA.AperFunction,ComponentPad*
%ADD16C,1.530000*%
G04 #@! TD*
G04 #@! TA.AperFunction,ViaPad*
%ADD17C,0.600000*%
G04 #@! TD*
G04 #@! TA.AperFunction,Conductor*
%ADD18C,0.200000*%
G04 #@! TD*
G04 APERTURE END LIST*
D10*
X24812330Y-86483257D03*
D11*
X65980000Y-79430000D03*
D12*
X68520000Y-79430000D03*
X71060000Y-79430000D03*
D10*
X112812330Y-28483257D03*
D11*
X85980000Y-79430000D03*
D12*
X88520000Y-79430000D03*
X91060000Y-79430000D03*
D11*
X65980000Y-69430000D03*
D12*
X68520000Y-69430000D03*
X71060000Y-69430000D03*
X73600000Y-69430000D03*
D11*
X106237500Y-79430000D03*
D12*
X108777500Y-79430000D03*
X111317500Y-79430000D03*
D10*
X112812330Y-86483257D03*
D13*
X116130000Y-47890000D03*
D14*
X116130000Y-50430000D03*
X116130000Y-52970000D03*
X116130000Y-55510000D03*
X116130000Y-58050000D03*
X116130000Y-60590000D03*
X116130000Y-63130000D03*
X116130000Y-65670000D03*
D13*
X103430000Y-65670000D03*
D14*
X103430000Y-63130000D03*
X103430000Y-60590000D03*
X103430000Y-58050000D03*
X103430000Y-55510000D03*
X103430000Y-52970000D03*
X103430000Y-50430000D03*
X103430000Y-47890000D03*
X111050000Y-65670000D03*
X113590000Y-65670000D03*
X112320000Y-64019000D03*
D15*
X32280000Y-30390000D03*
D16*
X32280000Y-32930000D03*
X32280000Y-35470000D03*
X32280000Y-38010000D03*
X32280000Y-40550000D03*
X32280000Y-43090000D03*
X32280000Y-45630000D03*
X32280000Y-48170000D03*
X32280000Y-50710000D03*
X32280000Y-53250000D03*
X32280000Y-55790000D03*
X32280000Y-58330000D03*
X32280000Y-60870000D03*
X32280000Y-63410000D03*
X32280000Y-65950000D03*
X32280000Y-68490000D03*
X32280000Y-71030000D03*
X32280000Y-73570000D03*
X32280000Y-76110000D03*
X32280000Y-78650000D03*
X32280000Y-81190000D03*
X32280000Y-83730000D03*
X55140000Y-30390000D03*
X55140000Y-32930000D03*
X55140000Y-35470000D03*
X55140000Y-38010000D03*
X55140000Y-40550000D03*
X55140000Y-43090000D03*
X55140000Y-45630000D03*
X55140000Y-48170000D03*
X55140000Y-50710000D03*
X55140000Y-53250000D03*
X55140000Y-55790000D03*
X55140000Y-58330000D03*
X55140000Y-60870000D03*
X55140000Y-63410000D03*
X55140000Y-65950000D03*
X55140000Y-68490000D03*
X55140000Y-71030000D03*
X55140000Y-73570000D03*
X55140000Y-76110000D03*
X55140000Y-78650000D03*
X55140000Y-81190000D03*
X55140000Y-83730000D03*
D10*
X24812330Y-28483257D03*
D11*
X106237500Y-69430000D03*
D12*
X108777500Y-69430000D03*
X111317500Y-69430000D03*
X113857500Y-69430000D03*
D13*
X76130000Y-47840000D03*
D14*
X76130000Y-50380000D03*
X76130000Y-52920000D03*
X76130000Y-55460000D03*
X76130000Y-58000000D03*
X76130000Y-60540000D03*
X76130000Y-63080000D03*
X76130000Y-65620000D03*
D13*
X63430000Y-65620000D03*
D14*
X63430000Y-63080000D03*
X63430000Y-60540000D03*
X63430000Y-58000000D03*
X63430000Y-55460000D03*
X63430000Y-52920000D03*
X63430000Y-50380000D03*
X63430000Y-47840000D03*
X71050000Y-65620000D03*
X73590000Y-65620000D03*
X72320000Y-63969000D03*
D13*
X96130000Y-47840000D03*
D14*
X96130000Y-50380000D03*
X96130000Y-52920000D03*
X96130000Y-55460000D03*
X96130000Y-58000000D03*
X96130000Y-60540000D03*
X96130000Y-63080000D03*
X96130000Y-65620000D03*
D13*
X83430000Y-65620000D03*
D14*
X83430000Y-63080000D03*
X83430000Y-60540000D03*
X83430000Y-58000000D03*
X83430000Y-55460000D03*
X83430000Y-52920000D03*
X83430000Y-50380000D03*
X83430000Y-47840000D03*
X91050000Y-65620000D03*
X93590000Y-65620000D03*
X92320000Y-63969000D03*
D11*
X85980000Y-89430000D03*
D12*
X88520000Y-89430000D03*
D11*
X85980000Y-69430000D03*
D12*
X88520000Y-69430000D03*
X91060000Y-69430000D03*
X93600000Y-69430000D03*
D17*
X78080000Y-79430000D03*
X67130000Y-56930000D03*
X84580000Y-79430000D03*
X67180000Y-63880000D03*
X61130000Y-77430000D03*
X86430000Y-85830000D03*
X77980000Y-75130000D03*
X62180000Y-75230000D03*
X70080000Y-74980000D03*
X68530000Y-60730000D03*
X46130000Y-39130000D03*
X61780000Y-72930000D03*
X79480000Y-58080000D03*
X77780000Y-62830000D03*
X68830000Y-72930000D03*
X62080000Y-73930000D03*
X70030000Y-73730000D03*
X78430000Y-73980000D03*
X98025735Y-62875735D03*
X85330000Y-73880000D03*
X59980000Y-58730000D03*
X108830000Y-60580000D03*
X61180000Y-49530000D03*
X88630000Y-60630000D03*
D18*
X56316138Y-50380000D02*
X55171138Y-49235000D01*
X85980000Y-79430000D02*
X84580000Y-79430000D01*
X75630000Y-81880000D02*
X65530000Y-81880000D01*
X55171138Y-49235000D02*
X48585000Y-49235000D01*
X65530000Y-81880000D02*
X65980000Y-81430000D01*
X78080000Y-79430000D02*
X75630000Y-81880000D01*
X63430000Y-50380000D02*
X56316138Y-50380000D01*
X65980000Y-81430000D02*
X65980000Y-79430000D01*
X48585000Y-49235000D02*
X32280000Y-32930000D01*
X67130000Y-54080000D02*
X63430000Y-50380000D01*
X65980000Y-79430000D02*
X67180000Y-78230000D01*
X67180000Y-78230000D02*
X67180000Y-63880000D01*
X67130000Y-56930000D02*
X67130000Y-54080000D01*
X33345000Y-53281138D02*
X33345000Y-51775000D01*
X61130000Y-77430000D02*
X57966138Y-77430000D01*
X57966138Y-77430000D02*
X55171138Y-74635000D01*
X33345000Y-51775000D02*
X32280000Y-50710000D01*
X55171138Y-74635000D02*
X54698862Y-74635000D01*
X54698862Y-74635000D02*
X33345000Y-53281138D01*
X88520000Y-79430000D02*
X86430000Y-81520000D01*
X86430000Y-81520000D02*
X86430000Y-85830000D01*
X62180000Y-75230000D02*
X56800000Y-75230000D01*
X56800000Y-75230000D02*
X55140000Y-73570000D01*
X70230000Y-75130000D02*
X70080000Y-74980000D01*
X77980000Y-75130000D02*
X70230000Y-75130000D01*
X68530000Y-60730000D02*
X68340000Y-60540000D01*
X68340000Y-60540000D02*
X63430000Y-60540000D01*
X41670000Y-90580000D02*
X32280000Y-81190000D01*
X99245685Y-90580000D02*
X41670000Y-90580000D01*
X106237500Y-83588185D02*
X99245685Y-90580000D01*
X106237500Y-79430000D02*
X106237500Y-83588185D01*
X111317500Y-79430000D02*
X117192000Y-73555500D01*
X117192000Y-46828000D02*
X109494000Y-39130000D01*
X117192000Y-73555500D02*
X117192000Y-46828000D01*
X109494000Y-39130000D02*
X46130000Y-39130000D01*
X77780000Y-68080000D02*
X72930000Y-72930000D01*
X72930000Y-72930000D02*
X68830000Y-72930000D01*
X107082000Y-56938000D02*
X80622000Y-56938000D01*
X116130000Y-47890000D02*
X107082000Y-56938000D01*
X80622000Y-56938000D02*
X79480000Y-58080000D01*
X77780000Y-62830000D02*
X77780000Y-68080000D01*
X57040000Y-72930000D02*
X55140000Y-71030000D01*
X61780000Y-72930000D02*
X57040000Y-72930000D01*
X98025735Y-66634265D02*
X90780000Y-73880000D01*
X90780000Y-73880000D02*
X85330000Y-73880000D01*
X62380000Y-73630000D02*
X62380000Y-72681471D01*
X62380000Y-72681471D02*
X58188529Y-68490000D01*
X58188529Y-68490000D02*
X55140000Y-68490000D01*
X78430000Y-73980000D02*
X70280000Y-73980000D01*
X70280000Y-73980000D02*
X70030000Y-73730000D01*
X98025735Y-62875735D02*
X98025735Y-66634265D01*
X62080000Y-73930000D02*
X62380000Y-73630000D01*
X75068000Y-59478000D02*
X60728000Y-59478000D01*
X116130000Y-60590000D02*
X114652000Y-59112000D01*
X97558000Y-59112000D02*
X96130000Y-60540000D01*
X76130000Y-60540000D02*
X75068000Y-59478000D01*
X95068000Y-59478000D02*
X77192000Y-59478000D01*
X96130000Y-60540000D02*
X95068000Y-59478000D01*
X114652000Y-59112000D02*
X97558000Y-59112000D01*
X77192000Y-59478000D02*
X76130000Y-60540000D01*
X60728000Y-59478000D02*
X59980000Y-58730000D01*
X95068000Y-62018000D02*
X77192000Y-62018000D01*
X97142000Y-62068000D02*
X96130000Y-63080000D01*
X116130000Y-63130000D02*
X115068000Y-62068000D01*
X115068000Y-62068000D02*
X97142000Y-62068000D01*
X77192000Y-62018000D02*
X76130000Y-63080000D01*
X74985000Y-61935000D02*
X53665000Y-61935000D01*
X96130000Y-63080000D02*
X95068000Y-62018000D01*
X76130000Y-63080000D02*
X74985000Y-61935000D01*
X53665000Y-61935000D02*
X32280000Y-40550000D01*
X64030000Y-89430000D02*
X63430000Y-88830000D01*
X85980000Y-89430000D02*
X64030000Y-89430000D01*
X83430000Y-87280000D02*
X83430000Y-65620000D01*
X102480000Y-86780000D02*
X102480000Y-86480000D01*
X88630000Y-86780000D02*
X102480000Y-86780000D01*
X102480000Y-86480000D02*
X103430000Y-85530000D01*
X85980000Y-89430000D02*
X88630000Y-86780000D01*
X85980000Y-89430000D02*
X83880000Y-87330000D01*
X83880000Y-87330000D02*
X83380000Y-87330000D01*
X83380000Y-87330000D02*
X83430000Y-87280000D01*
X103430000Y-85530000D02*
X103430000Y-65670000D01*
X63430000Y-88830000D02*
X63430000Y-65620000D01*
X108830000Y-60580000D02*
X108820000Y-60590000D01*
X108820000Y-60590000D02*
X103430000Y-60590000D01*
X91380000Y-45630000D02*
X55140000Y-45630000D01*
X96130000Y-50380000D02*
X91380000Y-45630000D01*
X61180000Y-49530000D02*
X59820000Y-48170000D01*
X59820000Y-48170000D02*
X55140000Y-48170000D01*
X64461895Y-57530000D02*
X63453895Y-56522000D01*
X60952000Y-56522000D02*
X55140000Y-50710000D01*
X68980000Y-57530000D02*
X64461895Y-57530000D01*
X76130000Y-50380000D02*
X68980000Y-57530000D01*
X63453895Y-56522000D02*
X60952000Y-56522000D01*
X88630000Y-60630000D02*
X88540000Y-60540000D01*
X88540000Y-60540000D02*
X83430000Y-60540000D01*
M02*
