G04 #@! TF.GenerationSoftware,KiCad,Pcbnew,10.0.5*
G04 #@! TF.CreationDate,2026-07-31T11:18:45+02:00*
G04 #@! TF.ProjectId,controllboard,636f6e74-726f-46c6-9c62-6f6172642e6b,rev?*
G04 #@! TF.SameCoordinates,Original*
G04 #@! TF.FileFunction,Copper,L2,Bot*
G04 #@! TF.FilePolarity,Positive*
%FSLAX46Y46*%
G04 Gerber Fmt 4.6, Leading zero omitted, Abs format (unit mm)*
G04 Created by KiCad (PCBNEW 10.0.5) date 2026-07-31 11:18:45*
%MOMM*%
%LPD*%
G01*
G04 APERTURE LIST*
G04 #@! TA.AperFunction,ComponentPad*
%ADD10C,7.500000*%
G04 #@! TD*
G04 #@! TA.AperFunction,ComponentPad*
%ADD11R,1.700000X1.700000*%
G04 #@! TD*
G04 #@! TA.AperFunction,ComponentPad*
%ADD12C,1.700000*%
G04 #@! TD*
G04 #@! TA.AperFunction,ComponentPad*
%ADD13R,1.524000X1.524000*%
G04 #@! TD*
G04 #@! TA.AperFunction,ComponentPad*
%ADD14C,1.524000*%
G04 #@! TD*
G04 #@! TA.AperFunction,ComponentPad*
%ADD15R,1.530000X1.530000*%
G04 #@! TD*
G04 #@! TA.AperFunction,ComponentPad*
%ADD16C,1.530000*%
G04 #@! TD*
G04 #@! TA.AperFunction,ViaPad*
%ADD17C,0.600000*%
G04 #@! TD*
G04 #@! TA.AperFunction,Conductor*
%ADD18C,0.200000*%
G04 #@! TD*
G04 APERTURE END LIST*
D10*
X24812330Y-86483257D03*
D11*
X65980000Y-79430000D03*
D12*
X68520000Y-79430000D03*
X71060000Y-79430000D03*
D10*
X112812330Y-28483257D03*
D11*
X85980000Y-79430000D03*
D12*
X88520000Y-79430000D03*
X91060000Y-79430000D03*
D11*
X65980000Y-69430000D03*
D12*
X68520000Y-69430000D03*
X71060000Y-69430000D03*
X73600000Y-69430000D03*
D11*
X106237500Y-79430000D03*
D12*
X108777500Y-79430000D03*
X111317500Y-79430000D03*
D10*
X112812330Y-86483257D03*
D13*
X116130000Y-47890000D03*
D14*
X116130000Y-50430000D03*
X116130000Y-52970000D03*
X116130000Y-55510000D03*
X116130000Y-58050000D03*
X116130000Y-60590000D03*
X116130000Y-63130000D03*
X116130000Y-65670000D03*
D13*
X103430000Y-65670000D03*
D14*
X103430000Y-63130000D03*
X103430000Y-60590000D03*
X103430000Y-58050000D03*
X103430000Y-55510000D03*
X103430000Y-52970000D03*
X103430000Y-50430000D03*
X103430000Y-47890000D03*
X111050000Y-65670000D03*
X113590000Y-65670000D03*
X112320000Y-64019000D03*
D15*
X32280000Y-30390000D03*
D16*
X32280000Y-32930000D03*
X32280000Y-35470000D03*
X32280000Y-38010000D03*
X32280000Y-40550000D03*
X32280000Y-43090000D03*
X32280000Y-45630000D03*
X32280000Y-48170000D03*
X32280000Y-50710000D03*
X32280000Y-53250000D03*
X32280000Y-55790000D03*
X32280000Y-58330000D03*
X32280000Y-60870000D03*
X32280000Y-63410000D03*
X32280000Y-65950000D03*
X32280000Y-68490000D03*
X32280000Y-71030000D03*
X32280000Y-73570000D03*
X32280000Y-76110000D03*
X32280000Y-78650000D03*
X32280000Y-81190000D03*
X32280000Y-83730000D03*
X55140000Y-30390000D03*
X55140000Y-32930000D03*
X55140000Y-35470000D03*
X55140000Y-38010000D03*
X55140000Y-40550000D03*
X55140000Y-43090000D03*
X55140000Y-45630000D03*
X55140000Y-48170000D03*
X55140000Y-50710000D03*
X55140000Y-53250000D03*
X55140000Y-55790000D03*
X55140000Y-58330000D03*
X55140000Y-60870000D03*
X55140000Y-63410000D03*
X55140000Y-65950000D03*
X55140000Y-68490000D03*
X55140000Y-71030000D03*
X55140000Y-73570000D03*
X55140000Y-76110000D03*
X55140000Y-78650000D03*
X55140000Y-81190000D03*
X55140000Y-83730000D03*
D10*
X24812330Y-28483257D03*
D11*
X106237500Y-69430000D03*
D12*
X108777500Y-69430000D03*
X111317500Y-69430000D03*
X113857500Y-69430000D03*
D13*
X76130000Y-47840000D03*
D14*
X76130000Y-50380000D03*
X76130000Y-52920000D03*
X76130000Y-55460000D03*
X76130000Y-58000000D03*
X76130000Y-60540000D03*
X76130000Y-63080000D03*
X76130000Y-65620000D03*
D13*
X63430000Y-65620000D03*
D14*
X63430000Y-63080000D03*
X63430000Y-60540000D03*
X63430000Y-58000000D03*
X63430000Y-55460000D03*
X63430000Y-52920000D03*
X63430000Y-50380000D03*
X63430000Y-47840000D03*
X71050000Y-65620000D03*
X73590000Y-65620000D03*
X72320000Y-63969000D03*
D13*
X96130000Y-47840000D03*
D14*
X96130000Y-50380000D03*
X96130000Y-52920000D03*
X96130000Y-55460000D03*
X96130000Y-58000000D03*
X96130000Y-60540000D03*
X96130000Y-63080000D03*
X96130000Y-65620000D03*
D13*
X83430000Y-65620000D03*
D14*
X83430000Y-63080000D03*
X83430000Y-60540000D03*
X83430000Y-58000000D03*
X83430000Y-55460000D03*
X83430000Y-52920000D03*
X83430000Y-50380000D03*
X83430000Y-47840000D03*
X91050000Y-65620000D03*
X93590000Y-65620000D03*
X92320000Y-63969000D03*
D11*
X85980000Y-89430000D03*
D12*
X88520000Y-89430000D03*
D11*
X85980000Y-69430000D03*
D12*
X88520000Y-69430000D03*
X91060000Y-69430000D03*
X93600000Y-69430000D03*
D17*
X78080000Y-79430000D03*
X67130000Y-56930000D03*
X84580000Y-79430000D03*
X67180000Y-63880000D03*
X61130000Y-77430000D03*
X86430000Y-85830000D03*
X77980000Y-75130000D03*
X62180000Y-75230000D03*
X70080000Y-74980000D03*
X68530000Y-60730000D03*
X46130000Y-39130000D03*
X61780000Y-72930000D03*
X79480000Y-58080000D03*
X77780000Y-62830000D03*
X68830000Y-72930000D03*
X62080000Y-73930000D03*
X70030000Y-73730000D03*
X78430000Y-73980000D03*
X98025735Y-62875735D03*
X85330000Y-73880000D03*
X59980000Y-58730000D03*
X108830000Y-60580000D03*
X61180000Y-49530000D03*
X88630000Y-60630000D03*
D18*
X83430000Y-50380000D02*
X82368000Y-51442000D01*
X84580000Y-79430000D02*
X78080000Y-79430000D01*
X103430000Y-50430000D02*
X102418000Y-51442000D01*
X67180000Y-63880000D02*
X67180000Y-56980000D01*
X102418000Y-51442000D02*
X84492000Y-51442000D01*
X67180000Y-56980000D02*
X67130000Y-56930000D01*
X84492000Y-51442000D02*
X83430000Y-50380000D01*
X64492000Y-51442000D02*
X63430000Y-50380000D01*
X82368000Y-51442000D02*
X64492000Y-51442000D01*
X68520000Y-79430000D02*
X66520000Y-77430000D01*
X66520000Y-77430000D02*
X61130000Y-77430000D01*
X37580000Y-65136138D02*
X37580000Y-54730000D01*
X68235000Y-82255000D02*
X54698862Y-82255000D01*
X54698862Y-82255000D02*
X37580000Y-65136138D01*
X71060000Y-79430000D02*
X68235000Y-82255000D01*
X37580000Y-54730000D02*
X33760000Y-54730000D01*
X33760000Y-54730000D02*
X32280000Y-53250000D01*
X33870000Y-57380000D02*
X32280000Y-55790000D01*
X36130000Y-57380000D02*
X33870000Y-57380000D01*
X86430000Y-85830000D02*
X55733862Y-85830000D01*
X36130000Y-66226138D02*
X36130000Y-57380000D01*
X55733862Y-85830000D02*
X36130000Y-66226138D01*
X70080000Y-74980000D02*
X62430000Y-74980000D01*
X62430000Y-74980000D02*
X62180000Y-75230000D01*
X86760000Y-75130000D02*
X77980000Y-75130000D01*
X91060000Y-79430000D02*
X86760000Y-75130000D01*
X65760000Y-58000000D02*
X63430000Y-58000000D01*
X65980000Y-69430000D02*
X65980000Y-57980000D01*
X65780000Y-57980000D02*
X65760000Y-58000000D01*
X65980000Y-57980000D02*
X65780000Y-57980000D01*
X68520000Y-69430000D02*
X68520000Y-60740000D01*
X68520000Y-60740000D02*
X68530000Y-60730000D01*
X71060000Y-69430000D02*
X69480000Y-67850000D01*
X69230000Y-55480000D02*
X68380000Y-55480000D01*
X69480000Y-67850000D02*
X69480000Y-55730000D01*
X68360000Y-55460000D02*
X63430000Y-55460000D01*
X69480000Y-55730000D02*
X69230000Y-55480000D01*
X68380000Y-55480000D02*
X68360000Y-55460000D01*
X71870000Y-52920000D02*
X63430000Y-52920000D01*
X74652000Y-68378000D02*
X74652000Y-55702000D01*
X74652000Y-55702000D02*
X71870000Y-52920000D01*
X73600000Y-69430000D02*
X74652000Y-68378000D01*
X88520000Y-85070000D02*
X87180000Y-83730000D01*
X103430000Y-63130000D02*
X98620000Y-63130000D01*
X98620000Y-63130000D02*
X96130000Y-65620000D01*
X103430000Y-47890000D02*
X100740000Y-47890000D01*
X75930000Y-83730000D02*
X55140000Y-83730000D01*
X78670000Y-63080000D02*
X76130000Y-65620000D01*
X87180000Y-83730000D02*
X75930000Y-83730000D01*
X88520000Y-89430000D02*
X88520000Y-85070000D01*
X60430000Y-66080000D02*
X60430000Y-75900000D01*
X63430000Y-38680000D02*
X55140000Y-30390000D01*
X60430000Y-75900000D02*
X55140000Y-81190000D01*
X108777500Y-79430000D02*
X103978750Y-84228750D01*
X83430000Y-63080000D02*
X78670000Y-63080000D01*
X96130000Y-65620000D02*
X96130000Y-76380000D01*
X63430000Y-47840000D02*
X63430000Y-38680000D01*
X103978750Y-84228750D02*
X98777500Y-89430000D01*
X63430000Y-63080000D02*
X60430000Y-66080000D01*
X83430000Y-47840000D02*
X65980000Y-30390000D01*
X116130000Y-65670000D02*
X116130000Y-72077500D01*
X100740000Y-47890000D02*
X83240000Y-30390000D01*
X116130000Y-72077500D02*
X108777500Y-79430000D01*
X76130000Y-83530000D02*
X75930000Y-83730000D01*
X65980000Y-30390000D02*
X55140000Y-30390000D01*
X96130000Y-76380000D02*
X103978750Y-84228750D01*
X98777500Y-89430000D02*
X88520000Y-89430000D01*
X83240000Y-30390000D02*
X65980000Y-30390000D01*
X76130000Y-65620000D02*
X76130000Y-83530000D01*
X33400000Y-39130000D02*
X32280000Y-38010000D01*
X46130000Y-39130000D02*
X33400000Y-39130000D01*
X79480000Y-58080000D02*
X79480000Y-61130000D01*
X79480000Y-61130000D02*
X77780000Y-62830000D01*
X68830000Y-72930000D02*
X61780000Y-72930000D01*
X70030000Y-73730000D02*
X62280000Y-73730000D01*
X102990105Y-51908000D02*
X99680000Y-55218105D01*
X62280000Y-73730000D02*
X62080000Y-73930000D01*
X85330000Y-73880000D02*
X78530000Y-73880000D01*
X99680000Y-61221470D02*
X98025735Y-62875735D01*
X114652000Y-51908000D02*
X102990105Y-51908000D01*
X78530000Y-73880000D02*
X78430000Y-73980000D01*
X116130000Y-50430000D02*
X114652000Y-51908000D01*
X99680000Y-55218105D02*
X99680000Y-61221470D01*
X58105000Y-56855000D02*
X46045000Y-56855000D01*
X59980000Y-58730000D02*
X58105000Y-56855000D01*
X46045000Y-56855000D02*
X32280000Y-43090000D01*
X108777500Y-60632500D02*
X108830000Y-60580000D01*
X108777500Y-69430000D02*
X108777500Y-60632500D01*
X106130000Y-57930000D02*
X106010000Y-58050000D01*
X106010000Y-58050000D02*
X103430000Y-58050000D01*
X106237500Y-69430000D02*
X106237500Y-58037500D01*
X106237500Y-58037500D02*
X106130000Y-57930000D01*
X110280000Y-55830000D02*
X109960000Y-55510000D01*
X109930000Y-68042500D02*
X109930000Y-56180000D01*
X111317500Y-69430000D02*
X109930000Y-68042500D01*
X109930000Y-56180000D02*
X110280000Y-55830000D01*
X109960000Y-55510000D02*
X103430000Y-55510000D01*
X114707500Y-68580000D02*
X114707500Y-55357500D01*
X114707500Y-55357500D02*
X112320000Y-52970000D01*
X112320000Y-52970000D02*
X103430000Y-52970000D01*
X113857500Y-69430000D02*
X114707500Y-68580000D01*
X61408000Y-49302000D02*
X61180000Y-49530000D01*
X94668000Y-49302000D02*
X61408000Y-49302000D01*
X96130000Y-47840000D02*
X94668000Y-49302000D01*
X76130000Y-47840000D02*
X75068000Y-48902000D01*
X75068000Y-48902000D02*
X59488000Y-48902000D01*
X59488000Y-48902000D02*
X55140000Y-53250000D01*
X88520000Y-69430000D02*
X88520000Y-60740000D01*
X88520000Y-60740000D02*
X88630000Y-60630000D01*
X85760000Y-58000000D02*
X83430000Y-58000000D01*
X85780000Y-57980000D02*
X85760000Y-58000000D01*
X85980000Y-58180000D02*
X85780000Y-57980000D01*
X85980000Y-69430000D02*
X85980000Y-58180000D01*
X89430000Y-55480000D02*
X89410000Y-55460000D01*
X90980000Y-69430000D02*
X89430000Y-67880000D01*
X89410000Y-55460000D02*
X83430000Y-55460000D01*
X89430000Y-67880000D02*
X89430000Y-55480000D01*
X91060000Y-69430000D02*
X90980000Y-69430000D01*
X94652000Y-68378000D02*
X94652000Y-55252000D01*
X94652000Y-55252000D02*
X92320000Y-52920000D01*
X93600000Y-69430000D02*
X94652000Y-68378000D01*
X92320000Y-52920000D02*
X83430000Y-52920000D01*
M02*
