M48
; DRILL file KiCad 10.0.5 date 2026-07-31T11:20:05
; FORMAT={-:-/ absolute / metric / decimal}
; #@! TF.CreationDate,2026-07-31T11:20:05+02:00
; #@! TF.GenerationSoftware,Kicad,Pcbnew,10.0.5
; #@! TF.FileFunction,Plated,1,2,PTH
FMAT,2
METRIC
; #@! TA.AperFunction,Plated,PTH,ViaDrill
T1C0.300
; #@! TA.AperFunction,Plated,PTH,ComponentDrill
T2C1.000
; #@! TA.AperFunction,Plated,PTH,ComponentDrill
T3C1.016
; #@! TA.AperFunction,Plated,PTH,ComponentDrill
T4C1.020
; #@! TA.AperFunction,Plated,PTH,ComponentDrill
T5C4.300
%
G90
G05
T1
X46.13Y-39.13
X59.98Y-58.73
X61.13Y-77.43
X61.18Y-49.53
X61.78Y-72.93
X62.08Y-73.93
X62.18Y-75.23
X67.13Y-56.93
X67.18Y-63.88
X68.53Y-60.73
X68.83Y-72.93
X70.03Y-73.73
X70.08Y-74.98
X77.78Y-62.83
X77.98Y-75.13
X78.08Y-79.43
X78.43Y-73.98
X79.48Y-58.08
X84.58Y-79.43
X85.33Y-73.88
X86.43Y-85.83
X88.63Y-60.63
X98.026Y-62.876
X108.83Y-60.58
T2
X65.98Y-69.43
X65.98Y-79.43
X68.52Y-69.43
X68.52Y-79.43
X71.06Y-69.43
X71.06Y-79.43
X73.6Y-69.43
X85.98Y-69.43
X85.98Y-79.43
X85.98Y-89.43
X88.52Y-69.43
X88.52Y-79.43
X88.52Y-89.43
X91.06Y-69.43
X91.06Y-79.43
X93.6Y-69.43
X106.237Y-69.43
X106.237Y-79.43
X108.777Y-69.43
X108.777Y-79.43
X111.317Y-69.43
X111.317Y-79.43
X113.858Y-69.43
T3
X63.43Y-47.84
X63.43Y-50.38
X63.43Y-52.92
X63.43Y-55.46
X63.43Y-58.0
X63.43Y-60.54
X63.43Y-63.08
X63.43Y-65.62
X71.05Y-65.62
X72.32Y-63.969
X73.59Y-65.62
X76.13Y-47.84
X76.13Y-50.38
X76.13Y-52.92
X76.13Y-55.46
X76.13Y-58.0
X76.13Y-60.54
X76.13Y-63.08
X76.13Y-65.62
X83.43Y-47.84
X83.43Y-50.38
X83.43Y-52.92
X83.43Y-55.46
X83.43Y-58.0
X83.43Y-60.54
X83.43Y-63.08
X83.43Y-65.62
X91.05Y-65.62
X92.32Y-63.969
X93.59Y-65.62
X96.13Y-47.84
X96.13Y-50.38
X96.13Y-52.92
X96.13Y-55.46
X96.13Y-58.0
X96.13Y-60.54
X96.13Y-63.08
X96.13Y-65.62
X103.43Y-47.89
X103.43Y-50.43
X103.43Y-52.97
X103.43Y-55.51
X103.43Y-58.05
X103.43Y-60.59
X103.43Y-63.13
X103.43Y-65.67
X111.05Y-65.67
X112.32Y-64.019
X113.59Y-65.67
X116.13Y-47.89
X116.13Y-50.43
X116.13Y-52.97
X116.13Y-55.51
X116.13Y-58.05
X116.13Y-60.59
X116.13Y-63.13
X116.13Y-65.67
T4
X32.28Y-30.39
X32.28Y-32.93
X32.28Y-35.47
X32.28Y-38.01
X32.28Y-40.55
X32.28Y-43.09
X32.28Y-45.63
X32.28Y-48.17
X32.28Y-50.71
X32.28Y-53.25
X32.28Y-55.79
X32.28Y-58.33
X32.28Y-60.87
X32.28Y-63.41
X32.28Y-65.95
X32.28Y-68.49
X32.28Y-71.03
X32.28Y-73.57
X32.28Y-76.11
X32.28Y-78.65
X32.28Y-81.19
X32.28Y-83.73
X55.14Y-30.39
X55.14Y-32.93
X55.14Y-35.47
X55.14Y-38.01
X55.14Y-40.55
X55.14Y-43.09
X55.14Y-45.63
X55.14Y-48.17
X55.14Y-50.71
X55.14Y-53.25
X55.14Y-55.79
X55.14Y-58.33
X55.14Y-60.87
X55.14Y-63.41
X55.14Y-65.95
X55.14Y-68.49
X55.14Y-71.03
X55.14Y-73.57
X55.14Y-76.11
X55.14Y-78.65
X55.14Y-81.19
X55.14Y-83.73
T5
X24.812Y-28.483
X24.812Y-86.483
X112.812Y-28.483
X112.812Y-86.483
M30
